# AST/ASF file generated using VICON BodyLanguage
# -----------------------------------------------
:version 1.10
:name VICON
:units
  mass 1.0
  length 0.45
  angle deg
:documentation
   .ast/.asf automatically generated from VICON data using
   VICON BodyBuilder and BodyLanguage model FoxedUp or BRILLIANT.MOD
:root
   order TX TY TZ RX RY RZ
   axis XYZ
   position 0 0 0  
   orientation 0 -0 0 
:bonedata
  begin
     id 1 
     name lhipjoint
     direction 0.432694 -0.693742 0.575759 
     length 2.19277 
     axis 0 -0 0  XYZ
  end
  begin
     id 2 
     name lfemur
     direction 0.34202 -0.939693 0  
     length 6.69022  
     axis 0 -0 20  XYZ
    dof rx ry rz
    limits (-160.0 20.0)
           (-70.0 70.0)
           (-60.0 70.0)
  end
  begin
     id 3 
     name ltibia
     direction 0.34202 -0.939693 0   
     length 6.50337   
     axis 0 -0 20   XYZ
    dof rx
    limits (-10.0 170.0)
  end
  begin
     id 4 
     name lfoot
     direction 0.158999 -0.435969 0.885805   
     length 2.70564   
     axis -90 -1.13533e-015 20   XYZ
    dof rx rz
    limits (-45.0 90.0)
           (-70.0 20.0)
  end
  begin
     id 5 
     name ltoes
     direction -0.00592919 0.00964381 0.999936   
     length 1.29929   
     axis -90 -1.13533e-015 20   XYZ
    dof rx
    limits (-90.0 20.0)
  end
  begin
     id 6 
     name rhipjoint
     direction -0.414359 -0.700339 0.581234   
     length 2.17212  
     axis 0 -0 0  XYZ 
  end
  begin
     id 7 
     name rfemur
     direction -0.34202 -0.939693 0   
     length 7.17659   
     axis 0 -0 -20   XYZ
    dof rx ry rz
    limits (-160.0 20.0)
           (-70.0 70.0)
           (-70.0 60.0)
  end
  begin
     id 8 
     name rtibia
     direction -0.34202 -0.939693 0   
     length 6.36669   
     axis 0 -0 -20   XYZ
    dof rx
    limits (-10.0 170.0)
 end
 begin
     id 9 
     name rfoot
     direction -0.137064 -0.37658 0.916188   
     length 2.22351  
     axis -90 1.13533e-015 -20   XYZ
    dof rx rz
    limits (-45.0 90.0)
           (-20.0 70.0)
  end
  begin
     id 10 
     name rtoes
     direction -0.000784077 -0.00289101 0.999996   
     length 1.09522   
     axis -90 1.13533e-015 -20   XYZ
    dof rx
    limits (-90.0 20.0)
  end
  begin
     id 11 
     name lowerback
     direction -0.0176242 0.984912 -0.172157   
     length 1.65301   
     axis 0 -0 0   XYZ
    dof rx ry rz
    limits (-20.0 45.0)
           (-30.0 30.0)
           (-30.0 30.0)
  end
  begin
     id 12 
     name upperback
     direction -0.00218128 0.998776 -0.0494072   
     length 1.67776   
     axis 0 -0 0   XYZ
    dof rx ry rz
    limits (-20.0 45.0)
           (-30.0 30.0)
           (-30.0 30.0)
  end
  begin
     id 13 
     name thorax
     direction 0.00544186 0.999658 0.0255711   
     length 1.72293   
     axis 0 -0 0   XYZ
    dof rx ry rz
    limits (-20.0 45.0)
           (-30.0 30.0)
           (-30.0 30.0)
  end
  begin
     id 14 
     name lowerneck
     direction -0.105325 0.983841 0.144785   
     length 2.14226   
     axis 0 -0 0   XYZ
    dof rx ry rz
    limits (-20.0 45.0)
           (-30.0 30.0)
           (-30.0 30.0)
  end
  begin
     id 15 
     name upperneck
     direction 0.0547957 0.988053 -0.144041   
     length 2.17508   
     axis 0 -0 0   XYZ
    dof rx ry rz
    limits (-20.0 45.0)
           (-30.0 30.0)
           (-30.0 30.0)
  end
  begin
     id 16
     name head
     direction 0.0247488 0.997534 -0.0656813  
     length 2.20048  
     axis 0 -0 0   XYZ
    dof rx ry rz
    limits (-20.0 45.0)
           (-30.0 30.0)
           (-30.0 30.0)
  end
  begin
     id 17 
     name lclavicle
     direction 0.820559 0.567247 -0.0701026  
     length 4.09615  
     axis 0 -0 0   XYZ
    dof ry rz
    limits (-20.0 10.0)
           (0.0 20.0)
  end
  begin
     id 18 
     name lhumerus
     direction 0.999977 -0.0067566 -9.96392e-005   
     length 4.59333   
     axis -180 -30 -90   XYZ
    dof rx ry rz
    limits (-60.0 90.0)
           (-90.0 90.0)
           (-90.0 90.0)
  end
  begin
     id 19
     name lradius
     direction 1 -4.48982e-011 -2.53425e-027   
     length 2.81151   
     axis -180 -30 -90   XYZ
    dof rx
    limits (-10.0 170.0)
  end
  begin
     id 20
     name lwrist
     direction 1 -4.48939e-011 -7.39254e-028   
     length 1.40576   
     axis 2.56395e-016 90 90   XYZ
    dof ry
    limits (-180.0 0.0)
 end
  begin
     id 21 
     name lhand
     direction 1 -4.48939e-011 -1.47851e-027   
     length 0.895651   
     axis 9.43423e-016 90 90   XYZ
    dof rx rz
    limits (-90.0 90.0)
           (-45.0 45.0)
  end
  begin
     id 22 
     name lfingers
     direction 1 -4.48978e-011 -2.95702e-027   
     length 0.722097   
     axis 1.88685e-015 90 90   XYZ
    dof rx
    limits (0.0 90.0)
  end
  begin
     id 23
     name lthumb
     direction 0.707107 -6.34931e-011 0.707107   
     length 1.03679   
     axis -90 45 -9.86935e-015   XYZ
    dof rx rz
    limits (-45.0 45.0)
           (-45.0 45.0)
  end
  begin
     id 24 
     name rclavicle
     direction -0.831414 0.553102 -0.0531864   
     length 4.24872  
     axis 0 -0 0   XYZ 
    dof ry rz
    limits (-10.0 20.0)
           (-20.0 0.0)
  end
  begin
     id 25 
     name rhumerus
     direction -0.999916 -0.000939607 0.0129331  
     length 4.74834   
     axis -180 30 90   XYZ
    dof rx ry rz
    limits (-90.0 60.0)
           (-90.0 90.0)
           (-90.0 90.0)
  end
  begin
     id 26 
     name rradius
     direction -1 -4.48956e-011 -1.31752e-027   
     length 2.79907   
     axis -180 30 90   XYZ
    dof rx
    limits (-10.0 170.0)
  end
  begin
     id 27 
     name rwrist
     direction -1 -4.4897e-011 -7.39254e-028   
     length 1.39954   
     axis 2.56395e-016 -90 -90   XYZ
    dof ry
    limits (-180.0 0.0)
  end
  begin
     id 28
     name rhand
     direction -0.999997 -0.00250697 0.000800838   
     length 0.953304   
     axis 9.43423e-016 -90 -90   XYZ
    dof rx rz
    limits (-90.0 90.0)
           (-45.0 45.0)
  end
  begin
     id 29
     name rfingers
     direction -1 -4.48954e-011 -2.95702e-027   
     length 0.763342   
     axis 1.88685e-015 -90 -90   XYZ
    dof rx
    limits (0.0 90.0)
  end
  begin
     id 30
     name rthumb
     direction -0.709701 -0.00217037 0.7045   
     length 1.10115   
     axis -90 -45 9.86935e-015   XYZ
    dof rx rz
    limits (-45.0 45.0)
           (-45.0 45.0)
  end
:hierarchy
  begin
    root lhipjoint rhipjoint lowerback
    lhipjoint lfemur
    lfemur ltibia
    ltibia lfoot
    lfoot ltoes
    rhipjoint rfemur
    rfemur rtibia
    rtibia rfoot
    rfoot rtoes
    lowerback upperback
    upperback thorax
    thorax lowerneck lclavicle rclavicle
    lowerneck upperneck
    upperneck head
    lclavicle lhumerus
    lhumerus lradius
    lradius lwrist
    lwrist lhand lthumb
    lhand lfingers
    rclavicle rhumerus
    rhumerus rradius
    rradius rwrist
    rwrist rhand rthumb
    rhand rfingers
  end

#!OML:ASF G:\ViconDB\ViconDB\414\test\team2\shane.ASF
:FULLY-SPECIFIED
:DEGREES
66
root 1.74376 15.7863 -35.5226 30.9901 7.1467 -2.384
lowerback 23.0134 2.3715 -2.61229
upperback 13.1168 2.57615 -0.64636
thorax 1.49454 1.18208 0.244889
lowerneck -13.4971 -9.79128 -18.4651
upperneck 8.97336 -10.0004 3.64027
head 6.02075 -5.25309 3.02559
rclavicle -1.89342e-014 3.31722e-014
rhumerus 31.9794 13.2606 -48.7178
rradius 28.541
rwrist 37.4048
rhand -31.6998 -16.6272
rfingers 7.12502
rthumb -4.95886 -46.5491
lclavicle -1.89342e-014 3.31722e-014
lhumerus 34.6168 -27.0393 38.0271
lradius 25.0491
lwrist -6.24444
lhand -43.3728 13.4659
lfingers 7.12502
lthumb -16.2173 42.8076
rfemur -31.5555 -20.2243 26.7387
rtibia 41.493
rfoot -36.0564 -11.2616
rtoes -16.13
lfemur -61.5846 17.3708 -21.6817
ltibia 78.1632
lfoot -29.4955 -16.2677
ltoes -13.1906
67
root 1.69342 15.7456 -35.3697 31.7504 7.22475 -2.16972
lowerback 23.1156 2.55456 -3.05788
upperback 13.4177 2.72802 -0.913198
thorax 1.77907 1.24118 0.180898
lowerneck -13.7818 -9.90746 -18.4504
upperneck 8.97659 -10.0772 3.49888
head 6.06707 -5.29543 2.95626
rclavicle -9.93923e-017 1.21756e-015
rhumerus 35.0716 12.2542 -48.5836
rradius 27.8266
rwrist 38.9467
rhand -31.458 -16.7286
rfingers 7.12502
rthumb -4.72544 -46.6559
lclavicle -9.93923e-017 1.21756e-015
lhumerus 36.6676 -26.8576 35.5958
lradius 25.2714
lwrist -4.71767
lhand -43.2765 13.9637
lfingers 7.12502
lthumb -16.1246 43.313
rfemur -31.9812 -20.4789 26.9633
rtibia 41.8719
rfoot -36.4163 -11.4032
rtoes -16.782
lfemur -64.8101 17.4208 -24.0672
ltibia 78.1504
lfoot -30.135 -16.6409
ltoes -13.321
68
root 1.6393 15.706 -35.2067 32.5008 7.34289 -1.87813
lowerback 23.303 2.76365 -3.72354
upperback 13.6668 2.87017 -1.13731
thorax 1.95709 1.28152 0.283223
lowerneck -13.9239 -9.96909 -18.5334
upperneck 8.88023 -10.1108 3.49227
head 6.0656 -5.30911 2.95715
rclavicle 1.8487e-014 -1.92076e-014
rhumerus 37.8427 11.0345 -49.0139
rradius 27.1053
rwrist 41.32
rhand -31.394 -16.704
rfingers 7.12502
rthumb -4.66359 -46.6327
lclavicle 1.8487e-014 -1.92076e-014
lhumerus 38.505 -26.2548 33.8695
lradius 25.2755
lwrist -3.18752
lhand -43.2481 14.0903
lfingers 7.12502
lthumb -16.0973 43.4417
rfemur -32.3064 -20.6677 27.0896
rtibia 42.261
rfoot -36.8097 -11.5749
rtoes -17.4007
lfemur -67.7193 17.2355 -26.4432
ltibia 77.8199
lfoot -30.8194 -17.1642
ltoes -13.3757
69
root 1.59084 15.6661 -35.0406 33.3104 7.50978 -1.6294
lowerback 23.4666 2.89056 -4.21618
upperback 13.9569 2.943 -1.417
thorax 2.20573 1.29835 0.244129
lowerneck -14.3544 -10.0396 -18.5784
upperneck 8.87409 -10.0949 3.42888
head 6.1291 -5.30196 2.92748
rclavicle -4.77083e-014 2.39039e-014
rhumerus 40.7443 10.3482 -48.5263
rradius 26.8233
rwrist 41.8258
rhand -31.2586 -16.5941
rfingers 7.12502
rthumb -4.53282 -46.5256
lclavicle -4.77083e-014 2.39039e-014
lhumerus 40.2818 -25.2257 32.5786
lradius 25.2623
lwrist -2.1029
lhand -43.198 15.0681
lfingers 7.12502
lthumb -16.0491 44.4234
rfemur -32.7186 -20.7565 27.2846
rtibia 42.6185
rfoot -37.1683 -11.8642
rtoes -17.9757
lfemur -70.6124 16.9179 -28.7826
ltibia 77.1637
lfoot -31.1443 -17.9791
ltoes -13.2159
70
root 1.5473 15.617 -34.8619 34.0258 7.66031 -1.44485
lowerback 23.585 3.09286 -4.67716
upperback 14.2348 3.1189 -1.68124
thorax 2.46152 1.36616 0.182303
lowerneck -14.4184 -10.0813 -18.5488
upperneck 8.73244 -10.147 3.45586
head 6.09799 -5.31807 2.92527
rclavicle 1.09829e-014 -2.96686e-014
rhumerus 43.2142 9.47193 -49.0154
rradius 26.3981
rwrist 42.3286
rhand -31.1454 -16.303
rfingers 7.12502
rthumb -4.42352 -46.2368
lclavicle 1.09829e-014 -2.96686e-014
lhumerus 42.2861 -25.1387 30.4197
lradius 25.8581
lwrist 0.773813
lhand -43.9543 16.0219
lfingers 7.12502
lthumb -16.7772 45.317
rfemur -32.9484 -20.9919 27.5207
rtibia 42.9687
rfoot -37.4889 -12.0948
rtoes -18.7311
lfemur -72.975 16.4246 -30.872
ltibia 76.2638
lfoot -31.5723 -18.42
ltoes -14.1505
